<?xml version="1.0" standalone="no"?>
<!DOCTYPE svg PUBLIC "-//W3C//DTD SVG 20010904//EN"
 "http://www.w3.org/TR/2001/REC-SVG-20010904/DTD/svg10.dtd">
<svg version="1.0" xmlns="http://www.w3.org/2000/svg"
 width="430.000000pt" height="430.000000pt" viewBox="0 0 430.000000 430.000000"
 preserveAspectRatio="xMidYMid meet">
<metadata>
Created by potrace 1.14, written by Peter Selinger 2001-2017
</metadata>
<g transform="translate(0.000000,430.000000) scale(0.100000,-0.100000)"
fill="#000000" stroke="none">
<path d="M1979 4296 c-2 -2 -29 -6 -59 -10 -118 -12 -150 -18 -290 -52 -213
-53 -462 -157 -608 -255 -24 -16 -47 -29 -53 -29 -5 0 -9 -4 -9 -8 0 -5 -10
-14 -23 -19 -34 -16 -211 -160 -290 -237 -188 -182 -368 -443 -470 -681 -35
-83 -86 -224 -93 -258 -2 -11 -8 -34 -13 -51 -15 -47 -50 -230 -59 -305 -9
-85 -9 -396 1 -486 7 -58 20 -131 42 -241 14 -63 67 -231 100 -314 290 -728
980 -1254 1755 -1337 145 -15 447 -9 565 12 35 6 96 17 110 20 6 2 36 8 69 15
32 6 82 20 110 30 28 9 53 18 56 18 32 5 211 79 304 126 454 231 818 624 1011
1091 62 151 105 299 139 490 21 113 29 433 14 566 -65 572 -348 1089 -793
1444 -134 107 -198 149 -370 240 -168 90 -473 188 -655 211 -30 4 -66 9 -80
11 -30 5 -406 13 -411 9z"/>
</g>
</svg>
